<svg xmlns="http://www.w3.org/2000/svg" version="1.1" width="240px" height="240px" style="shape-rendering:geometricPrecision; text-rendering:geometricPrecision; image-rendering:optimizeQuality; fill-rule:evenodd; clip-rule:evenodd" xmlns:xlink="http://www.w3.org/1999/xlink">
<g><path style="opacity:0.994" fill="#fe6d1a" d="M 104.5,-0.5 C 114.5,-0.5 124.5,-0.5 134.5,-0.5C 193.194,10.8605 228.194,45.8605 239.5,104.5C 239.5,114.5 239.5,124.5 239.5,134.5C 228.14,193.194 193.14,228.194 134.5,239.5C 124.5,239.5 114.5,239.5 104.5,239.5C 45.8062,228.14 10.8062,193.14 -0.5,134.5C -0.5,124.5 -0.5,114.5 -0.5,104.5C 10.8605,45.8062 45.8605,10.8062 104.5,-0.5 Z"/></g>
<g><path style="opacity:1" fill="#333436" d="M 181.5,57.5 C 181.842,58.3382 182.508,58.6716 183.5,58.5C 182.334,60.166 182.334,61.8327 183.5,63.5C 186.5,65.8333 189.167,68.5 191.5,71.5C 190.998,72.521 190.332,72.6877 189.5,72C 187.689,69.022 185.356,66.522 182.5,64.5C 181.478,64.8555 180.811,65.5222 180.5,66.5C 179.402,67.6009 179.235,68.9343 180,70.5C 181.047,72.7621 182.213,74.9288 183.5,77C 181.85,80.9225 181.017,85.0892 181,89.5C 178.947,85.2849 179.114,81.1183 181.5,77C 180.789,75.7453 179.956,74.5786 179,73.5C 176.299,79.8639 173.965,86.1972 172,92.5C 173.135,95.8587 175.468,97.192 179,96.5C 180.5,96.3333 182,96.1667 183.5,96C 184.532,93.1261 186.532,91.6261 189.5,91.5C 187.741,93.8039 186.575,96.4705 186,99.5C 184.833,105.5 183.667,111.5 182.5,117.5C 182.833,118.167 183.167,118.833 183.5,119.5C 184.48,118.019 185.647,116.685 187,115.5C 186.774,124.013 184.607,132.013 180.5,139.5C 181.167,140.833 181.833,140.833 182.5,139.5C 185.361,135.112 187.694,130.446 189.5,125.5C 189.957,124.702 190.624,124.369 191.5,124.5C 189.166,130.667 186.166,136.5 182.5,142C 180.094,142.779 178.427,141.946 177.5,139.5C 176.123,142.726 174.457,143.059 172.5,140.5C 169.572,139.516 166.572,139.183 163.5,139.5C 162.833,140.833 162.167,142.167 161.5,143.5C 159.833,142.167 158.167,142.167 156.5,143.5C 156.5,143.167 156.5,142.833 156.5,142.5C 157.919,141.549 159.585,141.216 161.5,141.5C 161.719,140.325 161.386,139.325 160.5,138.5C 158.591,137.652 156.591,137.318 154.5,137.5C 154.5,138.833 154.5,140.167 154.5,141.5C 153.833,139.833 153.167,138.167 152.5,136.5C 149.786,136.25 147.119,136.083 144.5,136C 145.455,139.099 146.289,142.266 147,145.5C 147.17,151.528 147.67,157.528 148.5,163.5C 151.884,162.117 154.217,159.783 155.5,156.5C 155.5,157.167 155.5,157.833 155.5,158.5C 155.267,160.062 154.6,161.395 153.5,162.5C 152.29,162.932 151.29,163.599 150.5,164.5C 149.005,164.415 148.005,165.081 147.5,166.5C 149.252,168.246 150.585,170.246 151.5,172.5C 150.883,172.611 150.383,172.944 150,173.5C 148.938,170.936 147.104,169.269 144.5,168.5C 143.558,168.608 142.725,168.941 142,169.5C 141,171.833 140,174.167 139,176.5C 138.517,175.552 138.351,174.552 138.5,173.5C 141.623,165.763 142.29,157.763 140.5,149.5C 140.167,149.167 139.833,148.833 139.5,148.5C 136.956,150.019 134.289,151.352 131.5,152.5C 127.656,149.828 123.489,147.828 119,146.5C 114.456,148.044 110.123,150.044 106,152.5C 104.037,151.375 102.204,150.041 100.5,148.5C 100.167,148.833 99.8333,149.167 99.5,149.5C 98.374,155.782 98.2073,162.115 99,168.5C 99.941,170.727 101.108,172.727 102.5,174.5C 102.833,174.5 103.167,174.5 103.5,174.5C 103.414,175.496 103.748,176.329 104.5,177C 106.727,177.941 108.727,179.108 110.5,180.5C 109.209,180.263 108.209,180.596 107.5,181.5C 104.077,185.342 101.41,189.675 99.5,194.5C 100.664,200.493 103.164,205.826 107,210.5C 107.995,213.126 108.328,215.793 108,218.5C 97.9158,219.486 87.7491,219.819 77.5,219.5C 76.8701,207.963 82.2034,203.796 93.5,207C 87.2226,202.104 83.556,195.771 82.5,188C 83.8875,180.057 87.0542,172.891 92,166.5C 91.9889,156.014 93.1555,145.68 95.5,135.5C 85.9025,137.316 76.2359,138.649 66.5,139.5C 66.5,140.5 66.5,141.5 66.5,142.5C 64.0885,142.863 62.5885,141.863 62,139.5C 60.7367,141.797 58.9034,142.63 56.5,142C 46.0693,126.377 41.5693,109.21 43,90.5C 43.8498,88.99 44.6831,87.49 45.5,86C 43.4507,80.6493 42.6174,75.1493 43,69.5C 45.6667,66.1667 48.3333,62.8333 51,59.5C 53.166,57.8787 55.666,57.0454 58.5,57C 60.9928,54.9197 63.6595,53.0864 66.5,51.5C 75.1377,34.7107 88.8044,24.544 107.5,21C 129.601,18.4755 148.768,24.6421 165,39.5C 167.838,43.1718 170.171,47.1718 172,51.5C 175.415,53.1232 178.582,55.1232 181.5,57.5 Z"/></g>
<g><path style="opacity:1" fill="#424449" d="M 109.5,22.5 C 127.433,21.5141 143.767,26.0141 158.5,36C 163.621,40.6046 167.288,46.1046 169.5,52.5C 169.563,54.4809 168.896,56.1476 167.5,57.5C 164.5,58.8333 161.5,58.8333 158.5,57.5C 154.044,46.5432 146.21,39.2099 135,35.5C 127.83,42.9982 125.33,41.6648 127.5,31.5C 125.016,34.6688 121.849,37.0021 118,38.5C 117.5,38.1667 117,37.8333 116.5,37.5C 117.907,34.1783 118.24,30.845 117.5,27.5C 109.689,31.9067 101.689,36.0733 93.5,40C 87.0758,44.7027 83.0758,50.8694 81.5,58.5C 78.1016,58.8204 74.7683,58.487 71.5,57.5C 70.8721,55.7419 69.8721,54.2419 68.5,53C 73.4166,41.7492 81.4166,33.4159 92.5,28C 98.254,26.0252 103.921,24.1919 109.5,22.5 Z"/></g>
<g><path style="opacity:1" fill="#cdcbc8" d="M 141.5,50.5 C 147.894,49.9596 152.894,52.2929 156.5,57.5C 156,57.8333 155.5,58.1667 155,58.5C 144.467,59.3342 133.967,60.1675 123.5,61C 129.727,57.7257 135.727,54.2257 141.5,50.5 Z"/></g>
<g><path style="opacity:1" fill="#cdcac8" d="M 91.5,51.5 C 94.1873,51.3359 96.854,51.5026 99.5,52C 104.167,54.6667 108.833,57.3333 113.5,60C 116.471,60.7943 119.471,61.461 122.5,62C 109.589,60.4069 96.589,59.2402 83.5,58.5C 86.1864,56.1442 88.853,53.8109 91.5,51.5 Z"/></g>
<g><path style="opacity:1" fill="#bdbbb9" d="M 65.5,53.5 C 67.2572,54.292 68.5905,55.6253 69.5,57.5C 66.5,58.8333 63.5,58.8333 60.5,57.5C 62.4192,56.3875 64.0858,55.0542 65.5,53.5 Z"/></g>
<g><path style="opacity:1" fill="#bbb9b7" d="M 171.5,53.5 C 180.875,57.7022 180.208,59.0356 169.5,57.5C 170.63,56.3777 171.297,55.0443 171.5,53.5 Z"/></g>
<g><path style="opacity:1" fill="#57449a" d="M 71.5,61.5 C 74.8333,61.5 78.1667,61.5 81.5,61.5C 81.1632,65.3076 81.6632,68.9743 83,72.5C 86.4424,76.1144 89.9424,79.4478 93.5,82.5C 86.4012,83.5428 82.0679,87.5428 80.5,94.5C 77.3511,94.5848 74.6845,93.5848 72.5,91.5C 75.3966,81.388 75.0633,71.388 71.5,61.5 Z"/></g>
<g><path style="opacity:1" fill="#57449a" d="M 158.5,61.5 C 161.5,61.5 164.5,61.5 167.5,61.5C 163.885,71.019 163.552,80.6856 166.5,90.5C 165.421,92.543 163.754,93.8763 161.5,94.5C 159.121,88.4571 154.788,84.4571 148.5,82.5C 155.838,77.4872 159.172,70.4872 158.5,61.5 Z"/></g>
<g><path style="opacity:1" fill="#9e89db" d="M 71.5,61.5 C 75.0633,71.388 75.3966,81.388 72.5,91.5C 69.6761,89.2004 67.8428,86.2004 67,82.5C 64.8817,76.6488 64.215,70.6488 65,64.5C 66.7342,62.5494 68.9009,61.5494 71.5,61.5 Z"/></g>
<g><path style="opacity:1" fill="#8d79ca" d="M 81.5,61.5 C 89.7859,62.7145 98.1193,63.5478 106.5,64C 107.416,64.2784 108.082,64.7784 108.5,65.5C 104.154,65.3343 99.8206,65.501 95.5,66C 91.5149,69.3807 91.5149,72.714 95.5,76C 100.489,76.4993 105.489,76.6659 110.5,76.5C 110.008,78.8185 109.008,80.8185 107.5,82.5C 102.979,81.3222 98.3121,81.3222 93.5,82.5C 89.9424,79.4478 86.4424,76.1144 83,72.5C 81.6632,68.9743 81.1632,65.3076 81.5,61.5 Z"/></g>
<g><path style="opacity:1" fill="#8f7bcb" d="M 158.5,61.5 C 159.172,70.4872 155.838,77.4872 148.5,82.5C 142.509,82.0343 136.509,81.701 130.5,81.5C 129.326,80.4863 128.66,79.153 128.5,77.5C 132.936,77.7899 137.27,77.2899 141.5,76C 145.598,72.3513 145.265,69.018 140.5,66C 137.305,65.8195 134.305,65.3195 131.5,64.5C 140.392,62.9426 149.392,61.9426 158.5,61.5 Z"/></g>
<g><path style="opacity:1" fill="#9e89db" d="M 167.5,61.5 C 172.361,62.3763 174.694,65.3763 174.5,70.5C 173.859,74.5402 173.025,78.5402 172,82.5C 170.884,85.7556 169.051,88.4223 166.5,90.5C 163.552,80.6856 163.885,71.019 167.5,61.5 Z"/></g>
<g><path style="opacity:1" fill="#d2cfcc" d="M 58.5,66.5 C 57.07,71.2744 54.4033,75.2744 50.5,78.5C 52.7983,81.2629 54.1316,84.4295 54.5,88C 54.3917,89.6811 53.7251,90.8478 52.5,91.5C 50.602,92.0965 48.9354,92.0965 47.5,91.5C 47.7947,89.2646 47.4614,87.2646 46.5,85.5C 45.6459,80.769 44.8125,76.1023 44,71.5C 47.1667,67.6667 50.3333,63.8333 53.5,60C 54.448,59.5172 55.448,59.3505 56.5,59.5C 54.4087,64.1284 51.4087,68.2951 47.5,72C 50.6064,70.9349 53.273,68.9349 55.5,66C 56.7494,65.2599 57.7494,65.4265 58.5,66.5 Z"/></g>
<g><path style="opacity:1" fill="#d0cdca" d="M 183.5,58.5 C 185.371,58.8588 186.871,59.8588 188,61.5C 190.092,64.681 192.425,67.681 195,70.5C 195.667,72.5 195.667,74.5 195,76.5C 193.042,81.6655 191.709,86.9988 191,92.5C 190.617,91.944 190.117,91.6107 189.5,91.5C 186.615,86.5238 185.782,81.1905 187,75.5C 184.615,72.6215 182.448,69.6215 180.5,66.5C 180.811,65.5222 181.478,64.8555 182.5,64.5C 185.356,66.522 187.689,69.022 189.5,72C 190.332,72.6877 190.998,72.521 191.5,71.5C 189.167,68.5 186.5,65.8333 183.5,63.5C 182.334,61.8327 182.334,60.166 183.5,58.5 Z"/></g>
<g><path style="opacity:1" fill="#57449b" d="M 108.5,65.5 C 109.167,65.5 109.5,65.8333 109.5,66.5C 105.486,66.3345 101.486,66.5012 97.5,67C 96.0577,67.3768 95.0577,68.2101 94.5,69.5C 93.9648,72.2385 94.9648,74.0718 97.5,75C 102.155,75.4992 106.821,75.6658 111.5,75.5C 111.5,76.1667 111.167,76.5 110.5,76.5C 105.489,76.6659 100.489,76.4993 95.5,76C 91.5149,72.714 91.5149,69.3807 95.5,66C 99.8206,65.501 104.154,65.3343 108.5,65.5 Z"/></g>
<g><path style="opacity:1" fill="#9b80f5" d="M 109.5,66.5 C 110.906,66.9731 111.573,67.9731 111.5,69.5C 105.833,69.5 100.167,69.5 94.5,69.5C 95.0577,68.2101 96.0577,67.3768 97.5,67C 101.486,66.5012 105.486,66.3345 109.5,66.5 Z"/></g>
<g><path style="opacity:1" fill="#9c80f6" d="M 127.5,67.5 C 131.846,67.3343 136.179,67.501 140.5,68C 141.056,68.3826 141.389,68.8826 141.5,69.5C 136.5,69.5 131.5,69.5 126.5,69.5C 126.833,68.8333 127.167,68.1667 127.5,67.5 Z"/></g>
<g><path style="opacity:1" fill="#754ff4" d="M 94.5,69.5 C 100.167,69.5 105.833,69.5 111.5,69.5C 112.573,71.3469 112.573,73.3469 111.5,75.5C 106.821,75.6658 102.155,75.4992 97.5,75C 94.9648,74.0718 93.9648,72.2385 94.5,69.5 Z"/></g>
<g><path style="opacity:1" fill="#754ff4" d="M 126.5,69.5 C 131.5,69.5 136.5,69.5 141.5,69.5C 142.747,72.1754 141.747,74.0088 138.5,75C 134.848,75.4986 131.182,75.6653 127.5,75.5C 126.659,73.6208 126.325,71.6208 126.5,69.5 Z"/></g>
<g><path style="opacity:1" fill="#614ea5" d="M 131.5,64.5 C 134.305,65.3195 137.305,65.8195 140.5,66C 145.265,69.018 145.598,72.3513 141.5,76C 137.27,77.2899 132.936,77.7899 128.5,77.5C 127.662,77.1583 127.328,76.4916 127.5,75.5C 131.182,75.6653 134.848,75.4986 138.5,75C 141.747,74.0088 142.747,72.1754 141.5,69.5C 141.389,68.8826 141.056,68.3826 140.5,68C 136.179,67.501 131.846,67.3343 127.5,67.5C 128.262,65.7376 129.596,64.7376 131.5,64.5 Z"/></g>
<g><path style="opacity:1" fill="#a2a19a" d="M 180.5,66.5 C 182.448,69.6215 184.615,72.6215 187,75.5C 185.782,81.1905 186.615,86.5238 189.5,91.5C 186.532,91.6261 184.532,93.1261 183.5,96C 182,96.1667 180.5,96.3333 179,96.5C 175.468,97.192 173.135,95.8587 172,92.5C 173.965,86.1972 176.299,79.8639 179,73.5C 179.956,74.5786 180.789,75.7453 181.5,77C 179.114,81.1183 178.947,85.2849 181,89.5C 181.017,85.0892 181.85,80.9225 183.5,77C 182.213,74.9288 181.047,72.7621 180,70.5C 179.235,68.9343 179.402,67.6009 180.5,66.5 Z"/></g>
<g><path style="opacity:1" fill="#a2a199" d="M 58.5,66.5 C 59.6974,70.5278 58.6974,74.1945 55.5,77.5C 57.8969,80.7274 59.0635,84.3941 59,88.5C 60.023,87.3999 60.523,86.0666 60.5,84.5C 59.9801,81.9604 59.3134,79.4604 58.5,77C 58.8333,76.1667 59.1667,75.3333 59.5,74.5C 61.8962,80.2925 64.5629,85.9592 67.5,91.5C 65.2955,97.5172 61.2955,99.0172 55.5,96C 54.6138,94.3853 53.6138,92.8853 52.5,91.5C 53.7251,90.8478 54.3917,89.6811 54.5,88C 54.1316,84.4295 52.7983,81.2629 50.5,78.5C 54.4033,75.2744 57.07,71.2744 58.5,66.5 Z"/></g>
<g><path style="opacity:1" fill="#a1a099" d="M 160.5,100.5 C 154.701,100.213 148.701,100.213 142.5,100.5C 140.721,98.6565 138.388,97.9898 135.5,98.5C 131.966,93.2747 128.299,88.108 124.5,83C 120.833,82.3333 117.167,82.3333 113.5,83C 111.248,88.1764 108.248,92.843 104.5,97C 108.688,97.1762 112.688,97.6762 116.5,98.5C 109.416,97.8745 102.75,98.5411 96.5,100.5C 91.3054,100.179 86.3054,100.513 81.5,101.5C 80.5655,100.432 80.2322,99.099 80.5,97.5C 87.5631,97.7878 94.5631,97.2878 101.5,96C 106.318,90.6933 110.652,85.0267 114.5,79C 118.714,76.7306 122.547,77.2306 126,80.5C 128.773,85.6037 131.94,90.437 135.5,95C 137.392,95.9734 139.392,96.6401 141.5,97C 148.082,97.81 154.582,97.6433 161,96.5C 161.765,98.0657 161.598,99.3991 160.5,100.5 Z"/></g>
<g><path style="opacity:1" fill="#a38fdf" d="M 107.5,82.5 C 102.215,94.6025 93.2154,98.6025 80.5,94.5C 82.0679,87.5428 86.4012,83.5428 93.5,82.5C 98.3121,81.3222 102.979,81.3222 107.5,82.5 Z"/></g>
<g><path style="opacity:1" fill="#d7d4d1" d="M 135.5,98.5 C 129.167,98.5 122.833,98.5 116.5,98.5C 112.688,97.6762 108.688,97.1762 104.5,97C 108.248,92.843 111.248,88.1764 113.5,83C 117.167,82.3333 120.833,82.3333 124.5,83C 128.299,88.108 131.966,93.2747 135.5,98.5 Z"/></g>
<g><path style="opacity:1" fill="#a38fe0" d="M 130.5,81.5 C 136.509,81.701 142.509,82.0343 148.5,82.5C 154.788,84.4571 159.121,88.4571 161.5,94.5C 154.851,95.3797 148.184,95.5464 141.5,95C 136.761,91.3433 133.094,86.8433 130.5,81.5 Z"/></g>
<g><path style="opacity:1" fill="#37393c" d="M 113.5,85.5 C 114.586,85.62 115.253,86.2867 115.5,87.5C 114.696,89.9573 113.696,89.9573 112.5,87.5C 112.863,86.8165 113.196,86.1499 113.5,85.5 Z"/></g>
<g><path style="opacity:1" fill="#505153" d="M 121.5,85.5 C 122.5,85.5 123.5,85.5 124.5,85.5C 124.5,86.8333 124.5,88.1667 124.5,89.5C 123.5,89.5 122.5,89.5 121.5,89.5C 121.5,88.1667 121.5,86.8333 121.5,85.5 Z"/></g>
<g><path style="opacity:1" fill="#454244" d="M 191.5,124.5 C 190.624,124.369 189.957,124.702 189.5,125.5C 187.694,130.446 185.361,135.112 182.5,139.5C 181.833,140.833 181.167,140.833 180.5,139.5C 184.607,132.013 186.774,124.013 187,115.5C 185.647,116.685 184.48,118.019 183.5,119.5C 183.167,118.833 182.833,118.167 182.5,117.5C 183.667,111.5 184.833,105.5 186,99.5C 186.575,96.4705 187.741,93.8039 189.5,91.5C 190.117,91.6107 190.617,91.944 191,92.5C 191.709,86.9988 193.042,81.6655 195,76.5C 195.667,74.5 195.667,72.5 195,70.5C 192.425,67.681 190.092,64.681 188,61.5C 186.871,59.8588 185.371,58.8588 183.5,58.5C 182.508,58.6716 181.842,58.3382 181.5,57.5C 182.847,56.9717 184.181,56.805 185.5,57C 189.35,60.5492 192.85,64.3825 196,68.5C 196.781,69.7287 197.281,71.062 197.5,72.5C 194.101,79.1655 193.934,85.8322 197,92.5C 197.932,103.669 196.099,114.336 191.5,124.5 Z"/></g>
<g><path style="opacity:1" fill="#424448" d="M 46.5,85.5 C 47.4614,87.2646 47.7947,89.2646 47.5,91.5C 46.1697,95.4905 47.1697,96.1572 50.5,93.5C 51.086,93.7093 51.586,94.0426 52,94.5C 54.1277,104.818 56.6277,114.985 59.5,125C 58.0039,125.507 56.8373,125.007 56,123.5C 55.7087,128.189 55.7087,132.856 56,137.5C 44.9139,121.467 41.7472,104.134 46.5,85.5 Z"/></g>
<g><path style="opacity:1" fill="#3d3e40" d="M 116.5,98.5 C 122.833,98.5 129.167,98.5 135.5,98.5C 138.388,97.9898 140.721,98.6565 142.5,100.5C 142.167,100.5 141.833,100.5 141.5,100.5C 126.833,100.5 112.167,100.5 97.5,100.5C 97.1667,100.5 96.8333,100.5 96.5,100.5C 102.75,98.5411 109.416,97.8745 116.5,98.5 Z"/></g>
<g><path style="opacity:1" fill="#d9d6d3" d="M 160.5,100.5 C 160.5,100.833 160.5,101.167 160.5,101.5C 155.255,105.957 149.255,109.124 142.5,111C 137.668,111.749 133.001,113.083 128.5,115C 111.442,118.399 96.1084,114.899 82.5,104.5C 81.8902,103.609 81.5569,102.609 81.5,101.5C 86.3054,100.513 91.3054,100.179 96.5,100.5C 96.8333,100.5 97.1667,100.5 97.5,100.5C 97.6107,101.117 97.944,101.617 98.5,102C 113.105,104.494 127.438,103.994 141.5,100.5C 141.833,100.5 142.167,100.5 142.5,100.5C 148.701,100.213 154.701,100.213 160.5,100.5 Z"/></g>
<g><path style="opacity:1" fill="#aaa9a2" d="M 97.5,100.5 C 112.167,100.5 126.833,100.5 141.5,100.5C 127.438,103.994 113.105,104.494 98.5,102C 97.944,101.617 97.6107,101.117 97.5,100.5 Z"/></g>
<g><path style="opacity:1" fill="#f66b1b" d="M 70.5,97.5 C 76.0056,106.613 83.6723,113.446 93.5,118C 91.9991,119.252 90.3325,120.252 88.5,121C 82.5453,122.072 76.5453,122.572 70.5,122.5C 73.1135,114.152 73.1135,105.819 70.5,97.5 Z"/></g>
<g><path style="opacity:1" fill="#f1691c" d="M 167.5,97.5 C 168.097,97.7352 168.43,98.2352 168.5,99C 167.904,104.163 167.238,109.33 166.5,114.5C 163.147,116.177 160.147,118.343 157.5,121C 156.5,121.167 155.5,121.333 154.5,121.5C 151.08,120.626 147.747,119.459 144.5,118C 154.571,113.757 162.237,106.924 167.5,97.5 Z"/></g>
<g><path style="opacity:1" fill="#a5a49d" d="M 160.5,101.5 C 156.96,108.634 151.294,113.468 143.5,116C 128.692,121.131 113.692,121.798 98.5,118C 90.8598,116.042 85.5265,111.542 82.5,104.5C 96.1084,114.899 111.442,118.399 128.5,115C 133.001,113.083 137.668,111.749 142.5,111C 149.255,109.124 155.255,105.957 160.5,101.5 Z"/></g>
<g><path style="opacity:1" fill="#c8c6c3" d="M 165.5,116.5 C 166.5,116.5 167.5,116.5 168.5,116.5C 169.314,123.355 167.981,124.021 164.5,118.5C 164.863,117.817 165.196,117.15 165.5,116.5 Z"/></g>
<g><path style="opacity:1" fill="#424449" d="M 138.5,119.5 C 143.442,119.736 148.109,120.902 152.5,123C 157.793,123.977 163.126,124.477 168.5,124.5C 168.5,126.833 168.5,129.167 168.5,131.5C 161.703,131.648 155.036,130.815 148.5,129C 145.99,124.812 142.323,122.812 137.5,123C 137.043,122.586 136.709,122.086 136.5,121.5C 137.243,120.818 137.909,120.151 138.5,119.5 Z"/></g>
<g><path style="opacity:1" fill="#b6b4b2" d="M 159.5,120.5 C 161.75,120.181 163.75,120.681 165.5,122C 164.5,122.167 163.5,122.333 162.5,122.5C 160.97,122.36 159.97,121.693 159.5,120.5 Z"/></g>
<g><path style="opacity:1" fill="#d7d4d1" d="M 137.5,142.5 C 136.599,144.389 135.099,145.722 133,146.5C 128.77,144.925 124.603,143.258 120.5,141.5C 120.5,137.833 120.5,134.167 120.5,130.5C 128.981,130.664 134.647,134.664 137.5,142.5 Z"/></g>
<g><path style="opacity:1" fill="#d7d4d1" d="M 118.5,130.5 C 118.823,134.226 118.489,137.893 117.5,141.5C 113.787,142.774 110.287,144.44 107,146.5C 105.019,146.101 103.519,145.101 102.5,143.5C 105.44,136.227 110.773,131.894 118.5,130.5 Z"/></g>
<g><path style="opacity:1" fill="#f36a1c" d="M 152.5,136.5 C 153.818,143.108 154.818,149.775 155.5,156.5C 154.217,159.783 151.884,162.117 148.5,163.5C 147.67,157.528 147.17,151.528 147,145.5C 146.289,142.266 145.455,139.099 144.5,136C 147.119,136.083 149.786,136.25 152.5,136.5 Z"/></g>
<g><path style="opacity:1" fill="#cac7c5" d="M 156.5,142.5 C 155.508,142.672 154.842,142.338 154.5,141.5C 154.5,140.167 154.5,138.833 154.5,137.5C 156.591,137.318 158.591,137.652 160.5,138.5C 161.386,139.325 161.719,140.325 161.5,141.5C 159.585,141.216 157.919,141.549 156.5,142.5 Z"/></g>
<g><path style="opacity:1" fill="#a4a39d" d="M 118.5,130.5 C 119.486,134.97 119.819,139.637 119.5,144.5C 115.083,145.872 110.749,147.539 106.5,149.5C 102.537,148.866 101.204,146.866 102.5,143.5C 103.519,145.101 105.019,146.101 107,146.5C 110.287,144.44 113.787,142.774 117.5,141.5C 118.489,137.893 118.823,134.226 118.5,130.5 Z"/></g>
<g><path style="opacity:1" fill="#a2a19a" d="M 120.5,141.5 C 124.603,143.258 128.77,144.925 133,146.5C 135.099,145.722 136.599,144.389 137.5,142.5C 138.848,143.527 139.348,144.86 139,146.5C 136.651,147.84 134.317,149.174 132,150.5C 128.435,148.633 124.935,146.633 121.5,144.5C 120.614,143.675 120.281,142.675 120.5,141.5 Z"/></g>
<g><path style="opacity:1" fill="#a4a39b" d="M 138.5,173.5 C 137.883,173.611 137.383,173.944 137,174.5C 134.356,169.379 131.856,164.212 129.5,159C 123.472,158.17 117.472,158.336 111.5,159.5C 108.237,164.362 105.237,169.362 102.5,174.5C 101.108,172.727 99.941,170.727 99,168.5C 98.2073,162.115 98.374,155.782 99.5,149.5C 99.8333,149.167 100.167,148.833 100.5,148.5C 102.204,150.041 104.037,151.375 106,152.5C 110.123,150.044 114.456,148.044 119,146.5C 123.489,147.828 127.656,149.828 131.5,152.5C 134.289,151.352 136.956,150.019 139.5,148.5C 139.833,148.833 140.167,149.167 140.5,149.5C 142.29,157.763 141.623,165.763 138.5,173.5 Z"/></g>
<g><path style="opacity:1" fill="#cecbc8" d="M 134.5,176.5 C 132.707,171.581 130.374,166.914 127.5,162.5C 122.833,161.167 118.167,161.167 113.5,162.5C 110.796,167.429 107.796,171.429 104.5,174.5C 106.711,169.61 109.378,164.944 112.5,160.5C 117.802,159.337 123.136,159.171 128.5,160C 130.522,164.546 132.689,169.046 135,173.5C 135.74,174.749 135.573,175.749 134.5,176.5 Z"/></g>
<g><path style="opacity:1" fill="#a7a69e" d="M 134.5,176.5 C 133.426,177.885 132.093,179.051 130.5,180C 123.842,180.5 117.175,180.666 110.5,180.5C 108.727,179.108 106.727,177.941 104.5,177C 103.748,176.329 103.414,175.496 103.5,174.5C 103.833,174.5 104.167,174.5 104.5,174.5C 107.796,171.429 110.796,167.429 113.5,162.5C 118.167,161.167 122.833,161.167 127.5,162.5C 130.374,166.914 132.707,171.581 134.5,176.5 Z"/></g>
<g><path style="opacity:1" fill="#3b393a" d="M 152.5,136.5 C 153.167,138.167 153.833,139.833 154.5,141.5C 154.842,142.338 155.508,142.672 156.5,142.5C 156.5,142.833 156.5,143.167 156.5,143.5C 155.629,145.777 155.962,148.11 157.5,150.5C 159.071,149.691 160.738,149.357 162.5,149.5C 162.167,147.5 161.833,145.5 161.5,143.5C 162.167,142.167 162.833,140.833 163.5,139.5C 165.198,146.744 165.698,154.077 165,161.5C 162.583,167.247 158.75,171.747 153.5,175C 157.054,179.964 158.221,185.464 157,191.5C 154.084,196.915 150.584,201.915 146.5,206.5C 150.458,206.043 154.458,206.543 158.5,208C 161.87,210.697 163.204,214.197 162.5,218.5C 153.161,218.666 143.827,218.5 134.5,218C 133.76,216.215 133.093,214.382 132.5,212.5C 135.256,210.909 137.089,208.576 138,205.5C 138.714,202.405 139.714,199.405 141,196.5C 140.565,189.364 136.899,184.364 130,181.5C 122.508,182.736 115.008,182.736 107.5,181.5C 108.209,180.596 109.209,180.263 110.5,180.5C 117.175,180.666 123.842,180.5 130.5,180C 132.093,179.051 133.426,177.885 134.5,176.5C 135.573,175.749 135.74,174.749 135,173.5C 132.689,169.046 130.522,164.546 128.5,160C 123.136,159.171 117.802,159.337 112.5,160.5C 109.378,164.944 106.711,169.61 104.5,174.5C 104.167,174.5 103.833,174.5 103.5,174.5C 103.167,174.5 102.833,174.5 102.5,174.5C 105.237,169.362 108.237,164.362 111.5,159.5C 117.472,158.336 123.472,158.17 129.5,159C 131.856,164.212 134.356,169.379 137,174.5C 137.383,173.944 137.883,173.611 138.5,173.5C 138.351,174.552 138.517,175.552 139,176.5C 140,174.167 141,171.833 142,169.5C 142.725,168.941 143.558,168.608 144.5,168.5C 147.104,169.269 148.938,170.936 150,173.5C 150.383,172.944 150.883,172.611 151.5,172.5C 156.699,171.741 157.699,169.241 154.5,165C 153.207,164.51 151.873,164.343 150.5,164.5C 151.29,163.599 152.29,162.932 153.5,162.5C 155.901,163.746 157.401,165.746 158,168.5C 164.718,162.841 163.885,159.508 155.5,158.5C 155.5,157.833 155.5,157.167 155.5,156.5C 154.818,149.775 153.818,143.108 152.5,136.5 Z"/></g>
<g><path style="opacity:1" fill="#ccc9c7" d="M 150.5,164.5 C 151.873,164.343 153.207,164.51 154.5,165C 157.699,169.241 156.699,171.741 151.5,172.5C 150.585,170.246 149.252,168.246 147.5,166.5C 148.005,165.081 149.005,164.415 150.5,164.5 Z"/></g>
<g><path style="opacity:1" fill="#cfcbc8" d="M 155.5,158.5 C 163.885,159.508 164.718,162.841 158,168.5C 157.401,165.746 155.901,163.746 153.5,162.5C 154.6,161.395 155.267,160.062 155.5,158.5 Z"/></g>
<g><path style="opacity:1" fill="#d5d2cf" d="M 158.5,151.5 C 160.144,151.286 161.644,151.62 163,152.5C 163.667,154.833 163.667,157.167 163,159.5C 161.758,158.128 160.258,157.128 158.5,156.5C 157.334,154.833 157.334,153.166 158.5,151.5 Z"/></g>
<g><path style="opacity:1" fill="#d0cac6" d="M 161.5,143.5 C 161.833,145.5 162.167,147.5 162.5,149.5C 160.738,149.357 159.071,149.691 157.5,150.5C 155.962,148.11 155.629,145.777 156.5,143.5C 158.167,142.167 159.833,142.167 161.5,143.5 Z"/></g>
<g><path style="opacity:1" fill="#cecbc8" d="M 98.5,211.5 C 93.6115,213.184 88.4449,214.184 83,214.5C 81.6153,214.486 80.4486,214.152 79.5,213.5C 80.5415,210.292 82.7082,208.292 86,207.5C 90.2952,208.775 94.4619,210.108 98.5,211.5 Z"/></g>
<g><path style="opacity:1" fill="#d2d0cd" d="M 159.5,213.5 C 154.025,214.489 148.358,214.822 142.5,214.5C 142.281,213.325 142.614,212.325 143.5,211.5C 147.519,208.95 151.852,208.117 156.5,209C 158.141,210.129 159.141,211.629 159.5,213.5 Z"/></g>
<g><path style="opacity:1" fill="#9b9a93" d="M 98.5,211.5 C 99.1577,212.398 99.8243,213.398 100.5,214.5C 101.499,211.826 103.166,211.159 105.5,212.5C 106.452,214.045 106.785,215.712 106.5,217.5C 97.1667,217.5 87.8333,217.5 78.5,217.5C 78.2322,215.901 78.5655,214.568 79.5,213.5C 80.4486,214.152 81.6153,214.486 83,214.5C 88.4449,214.184 93.6115,213.184 98.5,211.5 Z"/></g>
<g><path style="opacity:1" fill="#a5a49c" d="M 142.5,214.5 C 148.358,214.822 154.025,214.489 159.5,213.5C 160.404,214.209 160.737,215.209 160.5,216.5C 152.167,216.5 143.833,216.5 135.5,216.5C 136.38,211.711 138.214,211.378 141,215.5C 141.383,214.944 141.883,214.611 142.5,214.5 Z"/></g>
</svg>
